{
    "asset" : {
        "generator" : "Khronos glTF Blender I/O v1.7.33",
        "version" : "2.0"
    },
    "scene" : 0,
    "scenes" : [
        {
            "name" : "Scene",
            "nodes" : [
                0
            ]
        }
    ],
    "nodes" : [
        {
            "mesh" : 0,
            "name" : "Cylinder",
            "scale" : [
                0.08640825748443604,
                1,
                0.08640825748443604
            ]
        }
    ],
    "materials" : [
        {
            "doubleSided" : true,
            "name" : "wood",
            "pbrMetallicRoughness" : {
                "baseColorFactor" : [
                    0.8000000715255737,
                    0.46683722734451294,
                    0.1386624276638031,
                    1
                ],
                "metallicFactor" : 0,
                "roughnessFactor" : 0.5
            }
        },
        {
            "doubleSided" : true,
            "name" : "wood.001",
            "pbrMetallicRoughness" : {
                "baseColorFactor" : [
                    0.8000000715255737,
                    0.7431932091712952,
                    0.08887885510921478,
                    1
                ],
                "metallicFactor" : 0,
                "roughnessFactor" : 0.5
            }
        },
        {
            "doubleSided" : true,
            "name" : "Material.001",
            "pbrMetallicRoughness" : {
                "baseColorFactor" : [
                    0.35714513063430786,
                    0.35714513063430786,
                    0.35714513063430786,
                    1
                ],
                "metallicFactor" : 0.7340909242630005,
                "roughnessFactor" : 0.5
            }
        },
        {
            "doubleSided" : true,
            "name" : "eraser",
            "pbrMetallicRoughness" : {
                "baseColorFactor" : [
                    0.7737894058227539,
                    0.16141633689403534,
                    0.8000000715255737,
                    1
                ],
                "metallicFactor" : 0
            }
        }
    ],
    "meshes" : [
        {
            "name" : "Cylinder",
            "primitives" : [
                {
                    "attributes" : {
                        "POSITION" : 0,
                        "NORMAL" : 1,
                        "TEXCOORD_0" : 2
                    },
                    "indices" : 3,
                    "material" : 0
                },
                {
                    "attributes" : {
                        "POSITION" : 4,
                        "NORMAL" : 5,
                        "TEXCOORD_0" : 6
                    },
                    "indices" : 7,
                    "material" : 1
                },
                {
                    "attributes" : {
                        "POSITION" : 8,
                        "NORMAL" : 9,
                        "TEXCOORD_0" : 10
                    },
                    "indices" : 11,
                    "material" : 2
                },
                {
                    "attributes" : {
                        "POSITION" : 12,
                        "NORMAL" : 13,
                        "TEXCOORD_0" : 14
                    },
                    "indices" : 15,
                    "material" : 3
                }
            ]
        }
    ],
    "accessors" : [
        {
            "bufferView" : 0,
            "componentType" : 5126,
            "count" : 160,
            "max" : [
                1,
                1.3270418643951416,
                1
            ],
            "min" : [
                -1,
                0.99308842420578,
                -1
            ],
            "type" : "VEC3"
        },
        {
            "bufferView" : 1,
            "componentType" : 5126,
            "count" : 160,
            "type" : "VEC3"
        },
        {
            "bufferView" : 2,
            "componentType" : 5126,
            "count" : 160,
            "type" : "VEC2"
        },
        {
            "bufferView" : 3,
            "componentType" : 5123,
            "count" : 282,
            "type" : "SCALAR"
        },
        {
            "bufferView" : 4,
            "componentType" : 5126,
            "count" : 84,
            "max" : [
                1,
                1.0193573236465454,
                1
            ],
            "min" : [
                -1,
                -1,
                -1
            ],
            "type" : "VEC3"
        },
        {
            "bufferView" : 5,
            "componentType" : 5126,
            "count" : 84,
            "type" : "VEC3"
        },
        {
            "bufferView" : 6,
            "componentType" : 5126,
            "count" : 84,
            "type" : "VEC2"
        },
        {
            "bufferView" : 7,
            "componentType" : 5123,
            "count" : 192,
            "type" : "SCALAR"
        },
        {
            "bufferView" : 8,
            "componentType" : 5126,
            "count" : 322,
            "max" : [
                1.0549447536468506,
                -1,
                1.0549447536468506
            ],
            "min" : [
                -1.0549447536468506,
                -1.088495135307312,
                -1.0549447536468506
            ],
            "type" : "VEC3"
        },
        {
            "bufferView" : 9,
            "componentType" : 5126,
            "count" : 322,
            "type" : "VEC3"
        },
        {
            "bufferView" : 10,
            "componentType" : 5126,
            "count" : 322,
            "type" : "VEC2"
        },
        {
            "bufferView" : 11,
            "componentType" : 5123,
            "count" : 576,
            "type" : "SCALAR"
        },
        {
            "bufferView" : 12,
            "componentType" : 5126,
            "count" : 160,
            "max" : [
                0.9960726499557495,
                -1.069610357284546,
                0.9960726499557495
            ],
            "min" : [
                -0.9960726499557495,
                -1.2271325588226318,
                -0.9960726499557495
            ],
            "type" : "VEC3"
        },
        {
            "bufferView" : 13,
            "componentType" : 5126,
            "count" : 160,
            "type" : "VEC3"
        },
        {
            "bufferView" : 14,
            "componentType" : 5126,
            "count" : 160,
            "type" : "VEC2"
        },
        {
            "bufferView" : 15,
            "componentType" : 5123,
            "count" : 282,
            "type" : "SCALAR"
        }
    ],
    "bufferViews" : [
        {
            "buffer" : 0,
            "byteLength" : 1920,
            "byteOffset" : 0
        },
        {
            "buffer" : 0,
            "byteLength" : 1920,
            "byteOffset" : 1920
        },
        {
            "buffer" : 0,
            "byteLength" : 1280,
            "byteOffset" : 3840
        },
        {
            "buffer" : 0,
            "byteLength" : 564,
            "byteOffset" : 5120
        },
        {
            "buffer" : 0,
            "byteLength" : 1008,
            "byteOffset" : 5684
        },
        {
            "buffer" : 0,
            "byteLength" : 1008,
            "byteOffset" : 6692
        },
        {
            "buffer" : 0,
            "byteLength" : 672,
            "byteOffset" : 7700
        },
        {
            "buffer" : 0,
            "byteLength" : 384,
            "byteOffset" : 8372
        },
        {
            "buffer" : 0,
            "byteLength" : 3864,
            "byteOffset" : 8756
        },
        {
            "buffer" : 0,
            "byteLength" : 3864,
            "byteOffset" : 12620
        },
        {
            "buffer" : 0,
            "byteLength" : 2576,
            "byteOffset" : 16484
        },
        {
            "buffer" : 0,
            "byteLength" : 1152,
            "byteOffset" : 19060
        },
        {
            "buffer" : 0,
            "byteLength" : 1920,
            "byteOffset" : 20212
        },
        {
            "buffer" : 0,
            "byteLength" : 1920,
            "byteOffset" : 22132
        },
        {
            "buffer" : 0,
            "byteLength" : 1280,
            "byteOffset" : 24052
        },
        {
            "buffer" : 0,
            "byteLength" : 564,
            "byteOffset" : 25332
        }
    ],
    "buffers" : [
        {
            "byteLength" : 25896,
            "uri" : "data:application/octet-stream;base64,"
        }
    ]
}
